<svg xmlns="http://www.w3.org/2000/svg" width="248.321" height="244.329" viewBox="0 0 248.321 244.329">
  <g id="Groupe_1242" data-name="Groupe 1242" transform="translate(-360.214 -299.044)">
    <path id="Tracé_3178" data-name="Tracé 3178" d="M606.261,692.276c-2.11-6.732-17.313-63.7-17.147-64.25a2.832,2.832,0,0,1,1.45-.712,9.979,9.979,0,0,0,4.874-3.865,7.8,7.8,0,0,0-2.6-11.092,9.507,9.507,0,0,0-6.4-.777c-.867.232-1.356.383-1.745-.508a43.422,43.422,0,0,1-1.356-4.522c-.97-3.128-1.853-6.284-2.712-9.444-.874-3.263-1.724-6.528-2.607-9.782-.847-3.12-5.212-5.7-8.415-4.886l-2.568.655a15.5,15.5,0,0,0-2.536.875c-1.2.616-2.056-.465-2.928-3.719-.658-2.458-.7-2.522-2.107-2.943-1.362-.409-1.957-.292-11.891,2.351-12.029,3.2-13.157,3.685-13.44,5.786a12.11,12.11,0,0,0,.437,3.713c.635,2.368.6,3.017-.129,2.8a22.8,22.8,0,0,0-4.131.942l-3.72,1.066-2.894-3.457c-1.592-1.9-3.3-4.041-3.791-4.754-.612-.886-3.338-2.8-8.6-6.039-4.239-2.608-8.237-5.165-8.884-5.682a21.262,21.262,0,0,0-6.161-3.168c-1.51-.35-19.825,4.226-28.914,7.225-3.465,1.143-6.582,2.16-6.927,2.258s-2.284,3.39-4.31,7.313-4.3,8.268-5.048,9.654a46.1,46.1,0,0,0-5.088,12.885l-1.494,5.728-2.883.773-2.883.772-.512-1.724c-.684-2.3-1.083-3.317-1.372-3.484a11.891,11.891,0,0,0-2.636.229l-2.4.367-.661-2.032c-.981-3.018-1.629-3.232-6.13-2.026-2.4.642-3.711,1.159-3.935,1.545a7.085,7.085,0,0,0,.15,3c.539,2.685.834,2.314-2.713,3.42-1.514.472-1.88,1.639-1.252,3.986l.52,1.941-2.346.629a41.38,41.38,0,0,0-4.263,1.273c-.957.7-2.719-1.986-3.136-2.645a40.374,40.374,0,0,0-2.476-3.324,4.7,4.7,0,0,0-.888-1.054,2.939,2.939,0,0,0-1.693-.166c-1.945.254-2.092.18-2.821-1.418-.67-1.468-1.565-2.231-2.6-2.215-.525.008-6.036,1.455-12.246,3.215l-.968.274-5.888,1.669-2.892.82a8.624,8.624,0,0,0-.987.28,2.858,2.858,0,0,0-1.228,1.322,8.455,8.455,0,0,0-.864,2.592,2.13,2.13,0,0,1-1.244,1.948c-1.3.642-2.411,3.84-2.7,7.769l-.2,2.671-1.988.533c-3.7.991-5.047,2.784-5.166,6.87-.121,4.189,4.136,21.289,6.265,25.162.413.751.782,1.466.819,1.588a7.527,7.527,0,0,1-2.332,1.132c-3.669,1.391-5.071,2.8-5.536,5.551a7.82,7.82,0,0,0,.411,4.685c1.293,3.924,3.939,5.611,8.425,5.371a5.678,5.678,0,0,1,1.842.143c.319.14,1.164,2.6,2.416,7.046q4.449,15.78,8.854,31.573c2.472,8.906,4.346,17.928,6.7,26.853,1.192,4.523,1.488,5.276,2.518,6.4,1.816,1.986,3.9,2.987,5.7,2.734,5.62-.791,20.583-4.467,52.241-12.836,39.574-10.461,35.921-9.669,41.364-8.964a57.739,57.739,0,0,0,12.892.135c1.755-.286,3.665-.525,4.243-.532a52.522,52.522,0,0,0,5.26-.843c6.472-1.277,6.733-1.354,13.63-4.016,8.578-3.311,15.056-6.9,19.218-10.654,1.173-1.057,2.209-1.375,24.68-7.572,9.127-2.517,18.271-4.993,27.343-7.7,3.131-.935,7.182-1.322,9.319-4.113C610.032,701.484,607.342,695.724,606.261,692.276Zm-5.479-2.88c.018,1.121-.216,1.306-1.046.827a1.476,1.476,0,0,1-.5-2.1C599.807,687.326,600.762,688.112,600.783,689.4Zm-2.076-6.655c.36-.1.577.187.681.892.172,1.162-.837,1.931-1.442,1.1A1.433,1.433,0,0,1,598.707,682.741Zm-2.465-8.538a2.6,2.6,0,0,0,.425,1.153c.375.411-1.23,3.633-2.345,4.707-.4.384-.864.663-1.034.621-.443-.11,1.236-5.124,2.11-6.3C596.072,673.476,596.141,673.461,596.242,674.2Zm-1.788,19.265c.736.333,1.167.626.958.652s-1.1.172-1.97.324c-1.657.288-1.956.114-1.416-.823C592.491,692.817,592.951,692.788,594.454,693.468Zm.955-24.952a1.886,1.886,0,0,1-.519,1.314,3.477,3.477,0,0,1-.944.863c-.445.119-.673-1.178-.316-1.8C594.076,668.126,595.238,667.877,595.41,668.516Zm-3.3-8.872c1.5-2.505,2.076-2.451,1.184.11a8.935,8.935,0,0,1-1.155,2.27C591.023,663.359,591,661.508,592.113,659.644Zm-1.038,5.142c.539.843.23,2.152-.991,4.2-1.53,2.563-2.233,3.5-2.339,3.1a8.7,8.7,0,0,1,.856-3.686,23.774,23.774,0,0,0,1.009-2.516C590.233,664.046,590.482,663.86,591.075,664.787Zm-3.339,19.792c2.166-.363,3.762.55,4.291,2.455.283,1.02.118,1.585-.837,2.867-1.526,2.049-3.023,2.424-4.739,1.185a3.554,3.554,0,0,1-1.275-4.747C585.8,685.086,586.144,684.846,587.736,684.579Zm-.985-64.754c-.5-2.356-.053-2.97,1.843-2.527,1.539.36,1.782,1.973.5,3.333C587.511,622.313,587.263,622.228,586.751,619.825Zm1.275,26.2c.83-.222.563,1.117-.708,3.558-.594,1.141-1.855,1.835-1.6.882C586.106,648.972,587.578,646.146,588.026,646.026Zm-1.161-1.456a12.865,12.865,0,0,1-1.454,3.585l-1.266,2.193-.152-1.5a5.419,5.419,0,0,1,.306-2.073,12.536,12.536,0,0,1,.711-2.208c.228-.494.714-1.843,1.322-2.006C586.986,642.387,587.1,642.82,586.865,644.57Zm-2.036,50.265c.275,1.027-.114,1.636-1.518,2.378-.566.3-1.285.7-1.6.893a.912.912,0,0,1-1.14-.261c-.612-.653-.26-1.23,1.691-2.779C583.716,693.914,584.562,693.838,584.829,694.836Zm4.017-31.886c-.5,1.074-.618,1.18-1.051.93s.227-2.941.744-3.091C589.21,660.595,589.38,661.8,588.846,662.95Zm-3.206-48.394c.228-.758,3.289-1.166,5.087-.678,2.4.652,4.369,3.968,3.6,6.072a8.2,8.2,0,0,1-1.651,2.249c-1.616,1.6-3.567,2.554-4.331,2.114-.834-.481-.5-.758.267-1.013a4.394,4.394,0,0,0,1.534-.646c1.263-.982,2.339-2.074,2.427-3.766a3.5,3.5,0,0,0-2.061-3.152,3.3,3.3,0,0,0-3.053-.514C585.869,615.649,585.367,615.465,585.64,614.556Zm-.633,12.116c.47.141,1.186,2.627.939,3.259a3.22,3.22,0,0,1-1.51.925c-1.124.409-1.369.374-1.527-.216C582.686,629.8,584.433,626.5,585.007,626.672Zm-2.959,10.78c.675-.212.93,1.1.4,2.069-.64,1.18-1.258,1.527-1.8,1.012C580.328,640.233,581.518,637.619,582.048,637.451Zm-24.437-57.724c.32-.085.672.647,1.171,2.429.393,1.4.686,2.558.653,2.567a5.463,5.463,0,0,1-.735-.8C557.778,582.8,557.02,579.885,557.611,579.728Zm-3.089.9,1.158-.433.623,2.326a6.132,6.132,0,0,1,.3,2.883,1.5,1.5,0,0,1-.707.654c-.977.247-1.4-.317-1.954-2.605l-.58-2.391Zm-4.063,1.016c.9-.241.907-.225,1.308,2.294a18.588,18.588,0,0,1,.318,2.853c-.047.174-.405.4-.8.507-.622.167-.781-.075-1.289-1.974C549.262,582.572,549.341,581.943,550.458,581.644Zm-3.834,1.027c.731-.2.923.285,1.376,3.452.217,1.517.139,2.02-.335,2.147-.961.257-1.2-.038-1.789-2.251C545.3,583.878,545.5,582.971,546.625,582.671ZM542.03,584.1c1.07-.287,1.109-.25,1.6,1.53a16.761,16.761,0,0,1,.527,2.42c.012.328-.368.736-.845.907-1.027.368-1.581-.415-2.063-2.917C540.951,584.483,540.995,584.375,542.03,584.1Zm-4.384,1.554,1.368-.379.447,1.667a5.454,5.454,0,0,1,.1,2.632c-.391,1.074-1.618,1.6-2.121.9a10.278,10.278,0,0,1-.741-2.446l-.415-2Zm26.687,2.3c2.1-.493,4.862-1.733,7-1.642,3.635.155,4.071,5.52,4.8,8.223l1.571,5.8c1.806,6.666,3.278,12.343,3.27,12.614-.011.382-2.27,1.081-9.957,3.081-11.71,3.048-22.879,5.7-23.193,5.507a69.87,69.87,0,0,1-5.164-6.867c-2.575-3.764-10.394-14.153-12.066-16.03-.731-.821-1.341-1.539-1.357-1.6C529.189,596.863,556.476,589.8,564.334,587.952ZM578.872,684c.968-.551,1.143-.424.894.645-.209.9-.554,1.163-1.1.85C578.045,685.137,578.143,684.418,578.872,684Zm-.731-5.352c-.093-.348.2-.642.812-.805.811-.217.911-.154.651.413a1.573,1.573,0,0,1-.812.805A.548.548,0,0,1,578.141,678.651Zm1.294-29.644c-.6,1.141-.885,1.314-1.38.848-.375-.353.6-2.221,1.484-2.839C580.258,646.512,580.2,647.553,579.435,649.007ZM577.5,623.556c-.167.294-.055-.716.249-2.246.572-2.875,1.126-4.07,1.846-3.985.581.069-.448,4.474-1.206,5.164A5.372,5.372,0,0,0,577.5,623.556Zm-3.524,31.135c1.179-.7,1.138.214-.1,2.242-1.024,1.675-2.058,2.5-2.249,1.783C571.469,658.136,573.217,655.143,573.974,654.691Zm-1.381-23.84c.158-.527.451-1,.651-1.056s.462.273.583.725a.88.88,0,0,1-.651,1.056C572.7,631.7,572.435,631.378,572.594,630.851Zm-1.012,59.512c-.478,1.819-1.425,2.359-1.785,1.018-.152-.567,1.046-3.525,1.474-3.639C571.76,687.61,571.93,689.038,571.582,690.363Zm.256,9.589a3.364,3.364,0,0,0,1.914-.893,5.306,5.306,0,0,1,1.53-1.03c.882-.236.95.883.081,1.328-1.338.685-4.618,1.663-4.848,1.446C570.126,700.437,570.856,699.968,571.838,699.952Zm4.043-13.776c-.244,1.2-1.778,2.26-2.013,1.385a3.966,3.966,0,0,1,1.763-2.947c.323-.086.561-.018.53.152S576,685.57,575.88,686.175Zm-.086-4.349a.935.935,0,0,1-.884-.612,3.751,3.751,0,0,1,1.355-2.257c.611-.164.759,1.2.221,2.035A2.962,2.962,0,0,1,575.794,681.827Zm-.756-17.1c-1.72,2.205-2.285,2.591-2.518,1.721-.208-.774,3.041-6.107,3.852-6.324.371-.1.7-.09.728.02C577.314,660.94,576.394,662.984,575.038,664.724Zm-9.4-34.471a2.823,2.823,0,0,1,2.364-1.8c-.323.771-.653,1.551-.979,2.326-.938,2.229-1.715,3.026-1.463,1.5C565.7,631.481,565.268,631.086,565.642,630.253Zm1.614,12.3c.4-1.155.672-1.5,1.079-1.364.748.256.723,1.18-.07,2.58C567.147,645.742,566.451,644.9,567.256,642.551Zm-3.967-13.6c-.543,1.047-1.185,2.409-1.427,3.027-.438,1.12-.99,1.583-1.155.969s.434-2.677,1.432-4.913c.552-1.237,1.358-3.226,1.79-4.419.688-1.9.792-2.023.822-1A13.257,13.257,0,0,1,563.289,628.954Zm-5.849-4.9c-.758.2-.918.076-1.1-.879s-.065-1.157.767-1.381q1.813-.487,1.42,1.178A1.567,1.567,0,0,1,557.44,624.051ZM454.649,597.335c.5-.525,3.887-6.448,6.867-12.012l1.453-2.713,3.9-1.342c5.883-2.024,22.026-6.3,25.128-6.663,4.6-.532,4.752-.484,10.808,3.389,3.1,1.984,5.711,3.707,5.8,3.827s-6.125,1.947-13.8,4.059-16.629,4.731-19.893,5.82C466.115,594.636,454.013,598,454.649,597.335ZM483,591.967c27.448-7.212,29.921-7.809,30.642-7.392.432.249.632.517.445.594-.718.3-46.763,12.671-53.993,14.507-4.187,1.064-7.65,1.793-7.7,1.62C452.089,600.128,452.993,599.853,483,591.967ZM450.48,606.139c.069-1.148-.259-1.01,9.4-3.968,6.975-2.135,54.906-14.267,56.7-14.353a1.912,1.912,0,0,1,1.7,1.006c.394.579,3.687,4.753,7.317,9.276,6.758,8.42,14.887,18.994,15.039,19.561a10.278,10.278,0,0,1-2.848-1.509,61.29,61.29,0,0,0-12.151-5.434c-11.875-3.655-26.283-3.155-38.2-.05-16.78,4.37-32.8,14.171-42,29.108a38.429,38.429,0,0,1-3.388,5.006c-.2.054-.191-.522.024-1.28C444.205,635.988,450.319,608.818,450.48,606.139Zm-26.995,7.078.013-1.473,2.131-.571c2.094-.561,2.14-.552,2.665.51a12.212,12.212,0,0,1,.669,1.584c.1.382-.524.679-2.607,1.237a7.36,7.36,0,0,1-2.813.46A13.676,13.676,0,0,1,423.485,613.217Zm2.618,3.632c3.449-1,6.464-1.817,6.7-1.811.348.009.816,1.409,1.02,3.05a42.254,42.254,0,0,1-6.545,2.048L420.7,621.9l-.432-1.614-.433-1.614Zm-23.209,2.843c.649.039,2.009,2.18,2.761,4.349.409,1.18.406,1.6-.013,1.808-.44.214-.724-.211-1.441-2.157a28.142,28.142,0,0,0-1.375-3.228C402.468,619.863,402.485,619.666,402.895,619.691Zm-3.559.878c1.207-.323,1.342-.265,1.6.69.154.574.656,2.026,1.116,3.227l.837,2.184-1.1.3-1.1.295-.9-2.6a18.552,18.552,0,0,0-1.334-3.169C398.085,621.011,398.222,620.867,399.336,620.569Zm-24.574,2.47c.063-.773.416-.9,10.253-3.579,5.6-1.528,10.582-2.95,11.065-3.161.766-.335.932-.237,1.31.774l.433,1.157-10.906,2.895c-6,1.592-11.2,2.854-11.563,2.8C374.9,623.869,374.716,623.593,374.761,623.04Zm22.078,5.129c-1.252.523-1.563.155-2.654-3.139-.916-2.769-.917-2.8-.03-3.291,1.6-.888,1.843-.636,2.767,2.822C397.78,627.768,397.78,627.776,396.839,628.169Zm-3.631.7-1.046.28c-1.034.277-1.06.247-2.257-2.628a10.169,10.169,0,0,1-1-3.29,2.176,2.176,0,0,1,1.294-.543l1.082-.161.963,3.171Zm-5.889,1.9-.974.385-.882-3.29c-.809-3.021-.824-3.327-.179-3.739,1.118-.715,1.529-.149,2.293,3.157C388.288,630.362,388.286,630.388,387.319,630.77Zm-3.5.519c-.015.273-.361.587-.77.7-.676.181-.8-.031-1.435-2.384-.755-2.819-.661-4.107.32-4.37.557-.149.711.176,1.273,2.7A28,28,0,0,1,383.822,631.289Zm-4.946,1.815c-.819.219-.865.136-1.688-3.074l-.846-3.3,1.214-.326,1.215-.326.339,2.162c.186,1.189.4,2.719.473,3.4C379.69,632.624,379.544,632.925,378.876,633.1Zm-4.91-5.738a1.576,1.576,0,0,1,.752-.1c.011.051-.008.966-.043,2.033a14.018,14.018,0,0,0,.313,3.345c.3,1.118.24,1.441-.294,1.584-1.084.29-1.22-.013-1.057-2.358a13.288,13.288,0,0,0-.123-3.265C373.3,627.807,373.406,627.517,373.966,627.367Zm-3.283,6.1a13.842,13.842,0,0,0,.277-1.925c.013-.412.136-.684.272-.606a5.362,5.362,0,0,1,.137,2.175,4.214,4.214,0,0,1-.434,2.119C370.471,635.357,370.395,634.818,370.683,633.47Zm-1.9,43.825c1.034.173,1.2.475,1.325,2.388.058.9-.119,1.253-.7,1.4a1.864,1.864,0,0,1-2.594-1.454C366.394,678.077,367.268,677.042,368.782,677.3Zm1.274,6.522c-.53.385-.631.41-2.444.613a5.311,5.311,0,0,1-4.391-2.711c-1.756-3.66,1.453-8.987,4.394-7.3.775.446.734.5-.881,1.14a3.271,3.271,0,0,0-2.142,1.75c-1.412,3.4,1.284,6.687,4.728,5.764C370.478,682.767,370.907,683.2,370.056,683.818Zm1.583-14.335c-.725-.205-.917-1.16-1.155-1.846-1.139-3.285-1.94-6.706-2.839-10.06-1.126-4.2-5.053-13.846-.258-17.056,1.455-.974,3.725-1.424,5.372-1.964,6.357-2.084,12.85-3.78,19.337-5.4,7.554-1.89,21.853-5.42,32.293-8.081,11.854-3.021,19.017-4.705,19.076-4.484.237.885-.373,2.457-.539,3.319-.421,2.179-.875,4.351-1.34,6.52-1.052,4.9-2.294,9.771-3.406,14.664-.5,2.219-.539,6.013-2.786,7.274-2.091,1.173-4.648,1.566-6.924,2.276-2.505.781-5.006,1.59-7.574,2.144-4.4.949-8.736,2.16-13.07,3.354-1.3.36-4.353,1.156-6.775,1.771-4.535,1.151-8.639,2.149-13.149,3.4-4.112,1.138-8.166,2.765-12.376,3.479-.21.036-.474.1-.767.181A8.052,8.052,0,0,1,371.639,669.483ZM444,720.391a35.056,35.056,0,0,0-2.246,3.592,5.529,5.529,0,0,1-1.038,1.572c-1.547,1.073-1.282-1.013.394-3.1a34.7,34.7,0,0,0,2.107-2.91c.6-1,.611-1.081.051-.617-1.022.847-.757.193.362-.891s1.963-1.289,1.981-.479A10.927,10.927,0,0,1,444,720.391Zm.961,5.053a11.382,11.382,0,0,0-1.044,2.076c-.9,2.123-1.365,2.449-1.7,1.2-.255-.953,1.336-4.141,2.18-4.366C444.942,724.209,445.4,725.093,444.962,725.444Zm-4.68,9.15c-1.9.51-2.01-.388-.125-1.068,1-.36,1.349-.337,1.465.1S441.39,734.3,440.282,734.595Zm2.335-26.128c-1.276.874-2.235.676-2.363-.488-.084-.769,1.429-1.865,2.269-1.645C443.381,706.56,443.44,707.9,442.617,708.467Zm-2.324,3.256a1.143,1.143,0,0,1-.817,1.356.93.93,0,0,1-1.051-.781,1.515,1.515,0,0,1,.817-1.356C439.863,710.622,440.2,710.872,440.293,711.723Zm-2.965,5.357c.554-.061.931.242.838.672-.264,1.222-1.611,1.568-1.734.445A1.016,1.016,0,0,1,437.327,717.08Zm-2.609-10.139a2.448,2.448,0,0,1,1.828-2.077c.541,0,.545.186.045,1.987C436.066,708.739,434.718,708.8,434.718,706.941Zm-8.16-6.952c-.553.842-1.3,1.3-1.336.825a20.013,20.013,0,0,1,2.371-4.659,2.222,2.222,0,0,0,.619-1.219,2.925,2.925,0,0,1,1.508-1.861c.139-.01.265.146.28.346C430.034,693.893,427.956,697.857,426.558,699.989Zm1.624,34.11c-.07.669-1.224,1.151-1.693.709-.426-.4.458-1.466,1.155-1.392A.6.6,0,0,1,428.182,734.1Zm.824-46.436c.72-.193.79.443.167,1.523-.589,1.02-.65,1.067-1.064.828S428.424,687.819,429.006,687.663Zm.506-8.587c-.016.042-.032.086-.049.132-.129.355-.283.761-.69.87-.53.142-.726.015-.679-.438a1.835,1.835,0,0,1,.521-1.412c.229-.215.872-1.049,1.228-1s.4.5.225.78A5.493,5.493,0,0,0,429.512,679.076Zm-.276-17.321c-1.02,1.321-1.17,1.106-.483-.691a6.738,6.738,0,0,0,.464-1.893,1.026,1.026,0,0,1,.46-.911c.651-.376,1.941-.712,1.993-.52A24.308,24.308,0,0,1,429.236,661.756Zm1.2,11.309c.078-.395.278-1.437.446-2.315a13.208,13.208,0,0,1,1.049-3.024c.719-1.379.745-1.394.762-.452.01.536.039,1.435.065,2a7.728,7.728,0,0,1-1.137,3.031C430.447,674.284,430.153,674.472,430.431,673.065Zm2.465,13.447c.237.254.118,1.1-.266,1.892-.649,1.333-.726,1.346-1.126.189C431.06,687.307,432.136,685.7,432.9,686.512Zm-.116,47.356c.518-.144.652.032.681.889a3.149,3.149,0,0,1-.416,1.679c-.553.747-1.61,1.068-2.076.629C430.369,736.5,431.688,734.171,432.78,733.868Zm-16.141-9.212c-3.061-.467-5.346-2.786-6.981-7.085a61.619,61.619,0,0,1-2.5-14.766c-.006-1.662-.035-4.039-.063-5.282-.106-4.689.824-6.168,3.561-5.67a4.5,4.5,0,0,1,2.412,1.249c1.074,1.264,2.051,2.584,3.035,3.93.336.46.672.92.976,1.4,3.434,5.441,6.854,12.22,6.649,18.835a8.393,8.393,0,0,1-3.563,6.677A5.125,5.125,0,0,1,416.639,724.656Zm1.868,5.964a3.485,3.485,0,0,1-1.273.734c-.579.144-.579.041,0-.785.712-1.01,1.624-1.455,1.781-.87C419.071,729.893,418.84,730.307,418.507,730.62Zm-2.4,5.5c-.565.875-1.169,1.144-1.618.721-.3-.284.96-2.248,1.544-2.4C416.583,734.284,416.627,735.3,416.1,736.115Zm-4.447.532c-.531,1.931-1.614,2.7-2.359,1.674-.281-.388-.044-1.09.8-2.369C411.939,733.157,412.541,733.426,411.656,736.647Zm-17.118-64.784c-.62.559-1.221,1.1-1.336,1.2s-.363.039-.553-.14c-.767-.723,2.369-4.457,3.294-3.923C396.422,669.278,395.642,670.866,394.537,671.863Zm2.716,24.5c.845-.227.386,2.114.317,2.413a20.811,20.811,0,0,1-.735,1.97c-.088.263-.1.624-.2.918a.68.68,0,0,1-.478.479c-1.278.341-.468-2.035-.333-2.605C395.981,698.872,396.461,696.573,397.253,696.36Zm-1.383,44.693a10.04,10.04,0,0,0,.912-2.4c.06-.693,1.478-1.478,1.981-.812.32.424-.31,1.253-.466,1.674a9.164,9.164,0,0,1-.96,1.96C395.413,744.334,394.376,744.036,395.871,741.053Zm2.726-36.015c-.269-.372.542-2.059,1.561-3.248.412-.481,1.162-1.121.949-.024a8.351,8.351,0,0,1-1.209,2.693C399.18,705.459,398.969,705.552,398.6,705.038Zm1.663,14.691c-.451.844-.793,1.259-.76.927s.086-.907.116-1.277c.054-.667.884-1.516,1.266-1.295C400.992,718.147,400.712,718.887,400.26,719.729Zm.469,5.3c.787-.211.86.7.148,1.851-.646,1.042-1.432,1.507-1.585.938A4.2,4.2,0,0,1,400.729,725.029Zm.585-34.941c-.323-.918.748-2.757,1.418-2.436a1.474,1.474,0,0,1,.513,1.369C403.149,690.2,401.647,691.034,401.314,690.088Zm1.6,29.873c.071-.677,1.463-2.332,1.8-2.138.126.073.064.632-.138,1.244C404.186,720.247,402.806,720.99,402.914,719.96Zm2.415,21.625c.509.159.558.312.29.9-.485,1.054-2.415,1.316-2.67.363C402.727,742.016,404.205,741.235,405.329,741.585Zm-3.013-59.113c-1.084-.757-1.38-1.247-1.879-3.112-1.264-4.719,1.525-7.611,6.58-6.823,2,.312,4.67,2.013,4.981,3.175.322,1.2-.56,3.5-2.006,5.226a6.48,6.48,0,0,1-2.964,2.079C404.924,683.748,403.989,683.64,402.316,682.472Zm8.775-16.6c1.545-2.726,1.646-2.843,2.163-2.5.46.3.444.524-.122,1.59a17.324,17.324,0,0,0-.878,1.893c-.122.361-.4.65-.624.643C411.1,667.48,410.758,666.457,411.09,665.87Zm4.994-2.259a2.817,2.817,0,0,1-.4,1.243c-.49.724-1.272-.04-1.051-1.026C414.844,662.888,416.121,662.7,416.084,663.611Zm4.924,5.434c.706-1.338,1.191-1.444,1.114-.244a3.65,3.65,0,0,1-.775,1.627C420.342,671.669,420.114,670.74,421.009,669.045Zm-30.464,2.95a2.965,2.965,0,0,1-.691.833.935.935,0,0,1-.884-.612,3.751,3.751,0,0,1,1.355-2.257C390.935,669.8,391.083,671.161,390.545,671.995Zm-14.15,3.788a4.345,4.345,0,0,1-.951,1.332c-.683.214.266-3.284.457-3.591.573-.924.695-.984,1.041-.508C377.4,673.65,377.313,674.1,376.395,675.783Zm3.466,21.966c-.229-.856,1.141-3.459,1.932-3.671.425-.114.573.139.644,1.1a11.894,11.894,0,0,1,.056,1.344,13.485,13.485,0,0,1-1.237,1.022C380.106,698.432,380.046,698.441,379.861,697.749Zm2.807,3.4c-1.088.906-1.417.942-1.707.187-.255-.664.86-2.068,1.642-2.068C383.552,699.266,383.59,700.378,382.668,701.147Zm.8-15.12c-.1,1.129-.735,1.551-1.252.838-.4-.557.042-1.358.89-1.6C383.405,685.183,383.519,685.421,383.463,686.027ZM386,708.145c-.836.607-.916.558-.952-.578-.038-1.181,1.566-4.029,1.946-3.454C387.351,704.661,386.6,707.7,386,708.145Zm.689,14.953a1.067,1.067,0,0,1-.008-1.1,10.776,10.776,0,0,0,.6-2.214,7.289,7.289,0,0,1,.743-2.229c.551-.853,2.269-2.2,2.362-1.853a22.641,22.641,0,0,1-1.094,3.14C387.861,722.454,387.181,723.566,386.684,723.1Zm3.532-26.829c.285.165.332.505.129.947-.377.821-.78.977-1.288.5S389.62,695.924,390.216,696.269Zm.012,39.254-.052,1.722-.618-1.27c-.92-1.888-.6-4,.392-2.631A5.183,5.183,0,0,1,390.228,735.523Zm-.827-9.435c-1.043,1.592-1.967,1.923-1.967.7,0-.912,2.789-5.116,3.254-4.651A11.827,11.827,0,0,1,389.4,726.088Zm1.416-46.747a4.16,4.16,0,0,0-.751,1.12c-.4,1.016-.664,2.082-1.077,3.094a16.512,16.512,0,0,1-1.64,3.386c-.635.17.041-1.453.084-1.7.2-1.184,1.2-8.024,3.357-6.78C391.364,678.789,391.073,679.007,390.817,679.341Zm.587,65.748c-.2-.756,1.092-4.29,1.64-4.478.148-.051.346.2.44.547a6.373,6.373,0,0,1-.85,2.677C391.779,745.544,391.58,745.746,391.4,745.089Zm68.852-3.341c-2.353.467-17.717,4.453-34.141,8.858q-9.751,2.615-19.517,5.173c-2.253.588-4.5,1.222-6.771,1.745-2.12.489-4.81.831-5.977-1.271-.741-1.335-2.149-3.943-1.521-5.521.386-.969,2.611-1.185,3.491-1.341,1.476-.261,17.681-4.383,36.012-9.159s33.57-8.628,33.863-8.56c.583.137,9.993,5.395,10.488,5.861C476.541,737.87,466.758,740.459,460.256,741.748Zm-9.924-13.7c2.693-2.863,3.167-1.734.716,1.7-1.343,1.884-2,2.35-2.4,1.689C448.281,730.822,448.9,729.58,450.332,728.053Zm78.76,1.857c-2.366,1.029-4.733,2.033-7.138,2.94-1.718.648-3.455,1.247-5.226,1.77-8.7,2.569-18.114,3.818-27.087,2.005a60.932,60.932,0,0,1-42.5-32.6,68.338,68.338,0,0,1-6.832-20.575c-1.765-11.561-1.115-20.367,2.059-27.918.833-1.982,1.822-4.479,2.2-5.55.9-2.561,4.2-8.1,7.922-13.273,7.507-10.443,18.725-16.732,30.793-20.533,12.309-3.878,25.615-6.592,38.335-2.985a53.9,53.9,0,0,1,14.571,7.051c11.319,7.251,18.976,18.423,23.672,30.979a96.488,96.488,0,0,1,3.533,11.7c.871,3.707.965,7.29,1.476,11.034a18.584,18.584,0,0,1,.227,2c.011.4-.015.808-.04,1.211-.129,2.054-.323,4.07-.547,6.109-.943,8.6-2.276,13.079-5.994,20.138C552.137,715.524,541.551,724.495,529.092,729.91Zm74.7-27.4c-.426.4-6.209,2.091-17.744,5.191-9.412,2.529-20.035,5.537-23.607,6.683s-6.916,2.32-7.432,2.608c-1.517.847-1.215.021.685-1.874a42,42,0,0,0,3.98-5.042l2.211-3.278,6.929-2.1c3.811-1.153,13.21-3.823,20.889-5.932l13.96-3.835.566,2.114C604.88,699.474,604.706,701.649,603.792,702.506Zm-15.612-15.732c2.037-.342,2.634,1.109,1.253,3.046-.8,1.124-1.852.827-2.442-.69C586.451,687.744,586.826,687,588.181,686.774Zm-65.5-47.99c-5.9-3.285-10.268-4.288-18.9-4.339-14.537-.086-28.724,7-35.914,19.846a46.03,46.03,0,0,0-5.831,19.023c-.472,5.878,1.557,13.883,4.007,19.174a35.428,35.428,0,0,0,13.4,15.048c8.615,5.364,21.3,7.955,30.942,6.321a32.486,32.486,0,0,0,4.242-.987,48.131,48.131,0,0,0,20.166-13.535C549.87,681.884,542.521,649.829,522.682,638.784Zm-19.269,10.982c.638-2.268,2.2-3.756,2.864-2.735.582.89-.312,3.487-1.385,4.023S503.081,650.949,503.413,649.766Zm-4.256-.01a2.9,2.9,0,0,1,.8,3.188,2.323,2.323,0,0,1-1.374.981C496.291,654.542,496.321,647.811,499.157,649.757Zm-1.44,11.641c-1.276-.263-.8-2.981.577-3.283a1.563,1.563,0,0,1,.819-.015C500.013,658.677,498.77,661.615,497.717,661.4Zm-15.173,13.085a41.049,41.049,0,0,0-2.154,11.552,12.948,12.948,0,0,1-.225,2.722c-.442.842-3.431-2.578-3.966-4.538-1.041-3.812.848-7.452,3.319-10.278.493-.564,2.983-3.489,3.908-2.95A12.839,12.839,0,0,1,482.544,674.483Zm3.227-18.175c-4.025,2.447-8.366,5.444-10.621,9.723-1.737,3.295-1.961,3.526-2.506,2.582-2.334-4.041.835-9.609,3.952-12.256a14.11,14.11,0,0,1,6.912-3.135,16.15,16.15,0,0,1,4.64.03c.364.053,1.548.128,1.571.68C489.739,654.433,486.31,655.979,485.77,656.307Zm46.254,29.122c-2.411,6.3-7.061,11.2-12.728,14.754l-.274.17a25.744,25.744,0,0,1-7.3,2.556,24.205,24.205,0,0,1-8.755.555,35.162,35.162,0,0,1-5.853-1.256c-1.053-.328-2.753-.73-3.431-1.7-1.106-1.59-.243-2.136,5.163-3.27q.475-.1.949-.2c5.31-1.156,10.872-2.354,15.333-5.641,9.395-6.923,13.318-20.055,8.094-30.645a5.845,5.845,0,0,1-.793-2.837c.1-.972.158-1.007,1.275-.763,5.334,1.167,8.6,6.728,9.771,11.61A28.681,28.681,0,0,1,532.024,685.429Zm25.844-23.571c-1.78-7.786-3.271-11.124-9.06-20.277-2.918-4.614-9.011-11.577-11.858-13.553a64.9,64.9,0,0,0-22.779-10.135,34.112,34.112,0,0,0-9.436-.588,74.929,74.929,0,0,0-12.956,2.178c-3.279.867-6.577,2.1-9.679,3.256a64.158,64.158,0,0,0-16.072,9.153,55.549,55.549,0,0,0-20.964,34.629c-1.2,7.012.368,14.481,2,21.308a58.272,58.272,0,0,0,9.21,20.884c1.843,2.528,3.519,5.356,5.8,7.511.983.928,2.026,1.918,2.317,2.2,5.575,5.412,15.8,10.284,26.052,12.413a30.446,30.446,0,0,0,9.451.9c1.6-.077,3.688-.165,4.649-.2s3.858-.408,6.437-.837a61.2,61.2,0,0,0,6.488-1.378l4.858-1.613a64.092,64.092,0,0,0,12.545-6.559c.715-.55,1.812-1.391,2.438-1.87s1.85-1.5,2.72-2.278,2.429-2.049,3.463-2.833c3.247-2.461,5.856-5.852,9.4-12.211a54.11,54.11,0,0,0,5.117-11.4C560.6,681.372,559.974,671.068,557.869,661.858ZM554.7,688.051c-2.9,14.083-14.151,25.686-25.868,33.256a49.42,49.42,0,0,1-6.567,3.279c-16.346,6.683-39.789,6.2-53.072-6.947-8.055-7.975-14.759-15.418-18.238-26.521a52.2,52.2,0,0,1-.065-31.879,56.141,56.141,0,0,1,10.484-17.86,55.22,55.22,0,0,1,9.63-8.657c20.738-14.611,50.5-16.571,68.766,2.919,1.453,1.55,2.966,3.111,3.362,3.468a19.814,19.814,0,0,1,1.976,2.409C554.49,654.659,557.939,672.368,554.7,688.051Zm-133.861,27.1c-1.091-3.165-2.548-3.848-5.54-2.6-2.24.938-3.569,3.118-3.059,5.02.363,1.353,2.08,3.479,3.057,3.785.848.266,2.837-.37,4.024-1.287A4.023,4.023,0,0,0,420.844,715.155Zm-3.424,3.771c-.379.656-2.268.8-3.164.238-1.289-.806-1.758-1.623-1.52-2.644.2-.836,1.189-1.442,1.354-.826a9.123,9.123,0,0,0,1.79,1.628C416.819,718.046,417.511,718.768,417.42,718.926Zm1.126-2.034c-.242.342-.482.467-.533.278a7.718,7.718,0,0,0-1.835-1.539l-1.742-1.195,1.814-.365c1.788-.359,1.821-.346,2.275.917A2.141,2.141,0,0,1,418.546,716.892Zm-5.988-13.1c-1.161-.423-1.359-.925-.577-1.461.744-.51,1.772-2.527,1.6-3.151-.2-.734.892-.461,1.6.4a2.713,2.713,0,0,1,.16,3.386A2.079,2.079,0,0,1,412.557,703.8Zm105.3-102.525c1.254-1.017,1.438-1.4,1.359-2.792a3.554,3.554,0,0,0-3.449-3.5c-2.1-.232-3.221.832-3.538,3.367-.2,1.586-.064,2.159.685,2.907C514.312,602.648,516.151,602.656,517.856,601.272Zm-4.061-3.723c.143-1.372,1.2-1.632,2.465-.6,1.154.94,1.194,1.771.127,2.637C514.783,600.883,513.549,599.915,513.8,597.549Zm-103.7,80.4c.355-1.621-.07-2.782-1.248-3.412-2.08-1.112-5.42-.756-6.648.708a4.888,4.888,0,0,0-.284,4.533,3.8,3.8,0,0,0,3.662,1.929C408.2,681.425,409.583,680.279,410.091,677.953Zm-2.48.183c-.2,1.181-1.072,1.49-2.519.889-.9-.375-1.068-.641-1.161-1.856-.123-1.615.441-2.211,1.869-1.972A2.521,2.521,0,0,1,407.612,678.136Zm49.622.726a51.439,51.439,0,0,1-.223,7.856c-.206.193-.759-.594-1.277-1.789-.737-1.666-.995-3.174-1.216-6.941a44.8,44.8,0,0,1,6.662-27.425c4.665-7.809,15.89-17.069,24.288-20.022,3.206-1.138,10.951-2.18,13.35-1.826,1.012.166,1.745.386,1.629.513-.377.44-3.386,1.242-7.617,2.013-8.366,1.562-14.067,4.639-22.986,12.412-3.719,3.268-4.533,4.182-5.919,6.827C458.191,661.453,457.044,666.245,457.234,678.862Zm-40.7-33.09c.89.514,1.488.536,3.065.113,1.692-.453,2.06-.709,2.7-1.882,1.48-2.695-.3-6.76-3.089-7.044-1.99-.2-5.052,2.386-5.262,4.449C413.82,642.753,415.123,644.954,416.539,645.772Zm4.891-5.1c.292.168.2.961-.215,1.762-.819,1.6-3.025,2.543-2.952,1.264C418.325,642.624,420.767,640.291,421.429,640.673Zm66.249,79.579c-4.531-1.193-8.706-3.643-12.616-6.171a38.6,38.6,0,0,1-3.19-2.265c-2.848-2.282-6.73-6.656-6.559-7.65.147-.851.405-.7,2.059,1.086,1.732,1.882,9.076,7.315,13.788,9.72a53.6,53.6,0,0,0,8.653,3.627C492.8,719.471,490.011,720.866,487.678,720.252ZM419.307,649.56c4.142.08,4.686-.092,6.613-2.1,2.12-2.206,2.506-3.835,1.629-6.881-.5-1.754-1.11-4.173-2.779-5.187-3.681-2.236-9.1-2.3-12.494.517a8.223,8.223,0,0,0-2.617,4.821,10.284,10.284,0,0,0,2.02,6.013C413.579,649.341,416.318,649.5,419.307,649.56Zm-7.831-8.73a6.057,6.057,0,0,1,3.869-4.632,8.78,8.78,0,0,1,3.1-.746,6.008,6.008,0,0,1,6.206,4.115c.732,2.7.359,5.1-1.005,6.459a4.326,4.326,0,0,1-1.485,1.039c-5.256,1.081-5.926,1.1-7.522.21-1.361-.759-1.708-1.2-2.436-3.084A8.838,8.838,0,0,1,411.477,640.83Z" transform="translate(0 -218.628)" fill="#fff"/>
    <path id="Tracé_3179" data-name="Tracé 3179" d="M938.056,333.656c-.185-.69.477-1.895,3.687-6.712,1.46-2.191,3.633-5.6,4.828-7.572a44.608,44.608,0,0,1,5.634-8.033c1.149-1.191,4.487-3.429,4.183-.174-.13,1.394-.709,2.583-2.569,5.273-1.32,1.91-3.061,4.3-3.869,5.308-1.314,1.642-2.649,3.237-3.974,4.871-.711.877-1.452,1.728-2.208,2.567a25.31,25.31,0,0,1-4.187,4.168C938.18,334.3,938.227,334.292,938.056,333.656Zm-23.447-5.6a15.238,15.238,0,0,1-.019-4.763c.251-4.519.87-8.978,1.408-13.452.355-2.955.534-6.434,1.678-9.218,1.167-2.842,1.807-1.789,2.605,2.775a19.063,19.063,0,0,1,.054,6.8c-1.334,6.426-2.424,10.243-2.719,11.783a29.647,29.647,0,0,1-1.915,6.064C915.339,328.823,914.892,329.1,914.61,328.051Zm-24.716.758a18.56,18.56,0,0,1-2.519-2.362c-.593-.7-1.3-1.527-1.561-1.83-1.174-1.343-1.365-5.816-.26-6.1,1.127-.294,3.707,3.671,6.133,9.423C892.58,330.056,891.956,330.36,889.893,328.809Z" transform="translate(-421.987)" fill="#fff"/>
  </g>
</svg>
